HIERARCHY
ROOT Hips
{
 OFFSET 0.000000 0.000000 0.000000
 CHANNELS 6 Xposition Yposition Zposition Yrotation Xrotation Zrotation
 JOINT Chest
 {
  OFFSET 0.000000 14.634200 -0.016200
  CHANNELS 3 Yrotation Xrotation Zrotation
  JOINT Chest2
  {
   OFFSET 0.000000 8.932900 0.033000
   CHANNELS 3 Yrotation Xrotation Zrotation
   JOINT Chest3
   {
    OFFSET 0.000000 8.892300 0.000000
    CHANNELS 3 Yrotation Xrotation Zrotation
    JOINT Chest4
    {
     OFFSET 0.000000 8.883200 0.000000
     CHANNELS 3 Yrotation Xrotation Zrotation
     JOINT Neck
     {
      OFFSET 0.000000 13.173600 0.000000
      CHANNELS 3 Yrotation Xrotation Zrotation
      JOINT Head
      {
       OFFSET 0.000000 8.324600 0.069800
       CHANNELS 3 Yrotation Xrotation Zrotation
       End Site
       {
        OFFSET 0.000000 15.692400 0.036900
       }
      }
     }
     JOINT RightCollar
     {
      OFFSET -2.619200 8.772200 0.000000
      CHANNELS 3 Yrotation Xrotation Zrotation
      JOINT RightShoulder
      {
       OFFSET -12.922000 0.000000 0.000000
       CHANNELS 3 Yrotation Xrotation Zrotation
       JOINT RightElbow
       {
        OFFSET 0.000000 -27.880900 0.000000
        CHANNELS 3 Yrotation Xrotation Zrotation
        JOINT RightWrist
        {
         OFFSET 0.000000 -22.758700 0.008200
         CHANNELS 3 Yrotation Xrotation Zrotation
         End Site
         {
          OFFSET 0.000000 -16.965000 0.000000
         }
        }
       }
      }
     }
     JOINT LeftCollar
     {
      OFFSET 2.619200 8.772200 0.000000
      CHANNELS 3 Yrotation Xrotation Zrotation
      JOINT LeftShoulder
      {
       OFFSET 12.922000 0.000000 0.000000
       CHANNELS 3 Yrotation Xrotation Zrotation
       JOINT LeftElbow
       {
        OFFSET 0.000000 -27.880900 0.000000
        CHANNELS 3 Yrotation Xrotation Zrotation
        JOINT LeftWrist
        {
         OFFSET 0.000000 -22.758700 0.008200
         CHANNELS 3 Yrotation Xrotation Zrotation
         End Site
         {
          OFFSET 0.000000 -16.965000 0.000000
         }
        }
       }
      }
     }
    }
   }
  }
 }
 JOINT RightHip
 {
  OFFSET -12.026800 0.080100 0.008100
  CHANNELS 3 Yrotation Xrotation Zrotation
  JOINT RightKnee
  {
   OFFSET 0.000000 -42.600800 -0.000200
   CHANNELS 3 Yrotation Xrotation Zrotation
   JOINT RightAnkle
   {
    OFFSET 0.000000 -38.219300 0.054300
    CHANNELS 3 Yrotation Xrotation Zrotation
    JOINT RightToe
    {
     OFFSET 0.000000 -9.685800 15.804700
     CHANNELS 3 Yrotation Xrotation Zrotation
     End Site
     {
      OFFSET 0.000000 -1.422300 5.761700
     }
    }
   }
  }
 }
 JOINT LeftHip
 {
  OFFSET 12.026800 0.080100 0.008100
  CHANNELS 3 Yrotation Xrotation Zrotation
  JOINT LeftKnee
  {
   OFFSET 0.000000 -42.600800 -0.000200
   CHANNELS 3 Yrotation Xrotation Zrotation
   JOINT LeftAnkle
   {
    OFFSET 0.000000 -38.219300 0.054300
    CHANNELS 3 Yrotation Xrotation Zrotation
    JOINT LeftToe
    {
     OFFSET 0.000000 -9.685800 15.804700
     CHANNELS 3 Yrotation Xrotation Zrotation
     End Site
     {
      OFFSET 0.000000 -1.422300 5.761700
     }
    }
   }
  }
 }
}
MOTION
Frames: 7
Frame Time: 0.008333
0.000000 90.254400 0.000000 0.000000 -5.767877 0.000000 0.000000 11.653817 0.000000 0.000000 -5.885947 0.000000 0.000000 -0.000000 0.000000 0.000000 -0.000000 0.000000 0.000000 12.528835 0.000000 0.000000 0.711642 0.000000 0.000000 -0.000000 0.000000 0.000000 0.000000 -90.000000 0.000000 -2.309062 0.000000 0.000000 2.309062 0.000000 0.000000 -0.000000 0.000000 0.000000 -0.000000 90.000000 0.000000 -2.309062 0.000000 0.000000 2.309062 0.000000 0.000000 8.520406 0.000000 0.000000 1.905762 0.000000 -0.000000 -4.658285 0.000000 0.000000 -0.000000 0.000000 0.000000 8.520406 0.000000 0.000000 1.905762 0.000000 -0.000000 -4.658285 0.000000 0.000000 -0.000000 0.000000
-11.379433 151.936615 23.171377 169.255945 -19.046053 -0.057230 0.840544 19.954855 1.175240 0.090343 2.475389 0.163790 0.150929 4.064662 0.271035 0.785424 17.184848 1.253828 0.033497 10.633022 -2.505010 0.613649 -14.464989 -2.666281 6.605311 -0.159398 -1.788596 18.818772 -29.695340 -8.899893 4.635230 -51.639557 14.607033 23.676659 3.715491 -61.199412 -11.038393 0.553503 -2.029392 -3.046039 -29.772548 4.816025 10.073454 -54.608703 -27.856251 -9.172520 -3.057110 32.652321 -3.041087 -53.508973 12.940636 -32.398804 79.319003 -44.744917 -6.286764 -17.045804 10.675366 0.102795 -0.241492 0.063634 22.220591 -50.122786 -23.172896 75.711375 75.952619 86.815378 6.637034 -4.291130 -4.869437 0.132556 -3.030996 0.879179
-12.285320 144.725107 24.424029 169.238851 -19.050413 -0.162707 0.900861 19.958540 1.293933 0.088702 2.474757 0.164012 0.151656 4.066885 0.270803 0.789084 17.187914 1.254273 0.068232 10.597620 -2.500024 0.611546 -14.467626 -2.665280 6.600418 -0.162715 -1.793021 18.843734 -29.668531 -8.891920 4.657319 -51.671966 14.542552 23.661259 3.691922 -61.174497 -11.035921 0.552072 -2.014519 -3.037183 -29.778937 4.792903 10.089859 -54.604986 -27.864376 -9.145960 -3.082262 32.633993 -3.181147 -53.511226 13.133348 -32.436396 79.327602 -44.783149 -6.253272 -17.135463 10.694888 0.054391 -0.156736 0.033320 22.104181 -50.156286 -22.997986 75.655382 75.955118 86.758036 6.703855 -4.201481 -4.831080 0.085577 0.115110 0.052470
-13.032405 138.786365 25.455242 169.237845 -19.055381 -0.249865 0.940007 19.967872 1.385739 0.087495 2.475650 0.164673 0.148184 4.061293 0.273626 0.796225 17.194867 1.254088 0.081684 10.574849 -2.495752 0.687250 -14.536962 -2.674469 6.591377 -0.169452 -1.796303 18.851078 -29.661285 -8.885152 4.662776 -51.685217 14.521190 23.658344 3.672122 -61.157716 -11.037745 0.548523 -2.000636 -3.026811 -29.786596 4.771732 10.089607 -54.601935 -27.862881 -9.129223 -3.103019 32.629322 -3.304819 -53.507868 13.286076 -32.429738 79.339128 -44.781794 -6.241356 -17.213702 10.718060 0.020130 -0.085281 0.012333 22.004014 -50.179204 -22.861359 75.605060 75.956425 86.710038 6.745645 -4.132924 -4.803756 0.035524 0.058885 0.021777
-13.577654 134.497157 26.199365 169.246621 -19.057905 -0.294010 0.953739 19.973560 1.430489 0.081831 2.472761 0.165756 0.150860 4.065719 0.272343 0.801500 17.196376 1.254819 0.128115 10.534176 -2.490158 0.731325 -14.584643 -2.677218 6.583862 -0.173149 -1.811583 18.844653 -29.667121 -8.866455 4.664201 -51.689873 14.514316 23.652346 3.650122 -61.154456 -11.043445 0.543899 -1.992240 -3.015698 -29.792054 4.757384 10.088258 -54.596718 -27.858782 -9.132639 -3.110071 32.623455 -3.372033 -53.509199 13.359237 -32.453756 79.344412 -44.804698 -6.242610 -17.248326 10.722221 0.013845 -0.052976 0.008483 21.950586 -50.186500 -22.796233 75.558091 75.956110 86.667590 6.755876 -4.098606 -4.796478 0.021096 0.033214 0.012931
-13.919662 131.787959 26.670649 169.250109 -19.056924 -0.331699 0.971173 19.977245 1.469653 0.083629 2.471423 0.167076 0.152005 4.067977 0.272114 0.795874 17.192522 1.256353 0.181166 10.501341 -2.489079 0.757160 -14.617679 -2.677026 6.597224 -0.160085 -1.849214 18.824404 -29.679332 -8.828682 4.670168 -51.705339 14.478457 23.635534 3.623698 -61.141435 -11.044566 0.549544 -1.974795 -2.998756 -29.803120 4.728402 10.095769 -54.590804 -27.857749 -9.130423 -3.129287 32.606310 -3.423166 -53.510814 13.418698 -32.456261 79.343464 -44.804379 -6.237725 -17.282921 10.728633 0.003963 -0.019841 0.002428 21.913303 -50.196850 -22.743854 75.519642 75.953570 86.634100 6.762096 -4.068038 -4.784953 0.005339 0.011555 0.003273
-14.110732 130.297814 26.929524 169.252810 -19.056325 -0.341457 0.975173 19.979492 1.478756 0.088306 2.476358 0.166119 0.152869 4.069785 0.272002 0.799668 17.195870 1.255792 0.219658 10.465967 -2.482796 0.796872 -14.661115 -2.677909 6.589473 -0.169516 -1.851159 18.831403 -29.660589 -8.815201 4.689294 -51.732181 14.430961 23.611591 3.599866 -61.125373 -11.046078 0.560358 -1.942175 -2.987047 -29.828680 4.690461 10.136630 -54.580224 -27.866617 -9.152755 -3.145041 32.573401 -3.437519 -53.513365 13.432637 -32.464965 79.339867 -44.812297 -6.236930 -17.289718 10.736751 0.002727 -0.013808 0.001671 21.905293 -50.200502 -22.732473 75.527647 75.957199 86.645964 6.755424 -4.063165 -4.780643 0.001192 0.006808 0.000730
